<?xml version="1.0" encoding="UTF-8"?>
<svg id="Capa_1" data-name="Capa 1" xmlns="http://www.w3.org/2000/svg" viewBox="0 0 689.76 540.76">
  <path d="M421.94,497.91c-5.31-.4-14.3-1.07-19.57-1.46-2.25-.18-3.72-.33-3.88-.76-.17-.32.54-.85,1.64-1.49.63-.37,1.34-.76,2.18-1.2,53.32-26.46,50.81-104.54,28.39-152.85-9.59-20.92-25.72-38.05-37.42-57.72-4-6.72-7.75-14.53-9-22.2-4.98-26.97,19.95-47.59,45.97-56.36,20.2-7.45,40.58-11.2,59.7-22.02,13.73-7.41,24.78-18.74,34.6-31.31,7.5-9.76,7.98-12.28-5.37-15.72-65.3-18.5-90.79-3.06-152.21,7.66-7.35,1.06-10.67.61-4.4-5.55,34.35-35.49,60.91-82.78,46.68-132.86-.81-2.42-1.82-3.93-3.53-4.05-1.01-.04-2.14.23-3.19.67-5.19,2.12-14.03,6.78-19.4,9.35-4.49,2.14-9.27,2.97-13.38,5.81-49.61,34.31-79.7,88-81.29,148.82-.17,6.6-3,7.34-9.45,7.53-70.17-2.71-111.06,100.61-39.13,126.86,17.03,6.79,35.32,4.79,52.57,2.51,2.14-.3,26.74-6.57,19.96-.71-17.12,14.81-42.44,21.65-64.33,16.33-4.96-.85-11.37-2.67-14.71,1.98-3.64,4.78-7.94,12.69-11.49,18.71-15.82,27.79-23.84,70.94-15.64,102.06,3.77,15.83,8.21,30.71,20.75,41.98,6.08,6.31,15.34,9.87,22.75,13.86.56.31,1.02.58,1.39.83,1.08.72,1.32,1.18.64,1.4-2.6.45-9.06.33-12.39.63-32.92,2.59-65.86,6.78-98.54,10.73-22.37,4.85-45.08,8.08-67.51,12.26-10.85,1.33-21.18,3.79-31.74,6.93-13.91,3.85-27.81,7.87-41.62,12.21,109.82-16.02,227.05-24.8,348.96-24.8s233.34,8.36,340.8,23.64c-85.88-28.18-178.51-35.03-267.82-41.68ZM275.73,224.05l-.18.19c-9.23,10.35-24.8-2.51-19.1-14.13,3.62-7.19,13.6-8.24,19.04-2.54,4.68,4.46,4.98,11.53.24,16.48Z"/>
</svg>